<svg>

  <symbol fill="none" xmlns="http://www.w3.org/2000/svg" viewBox="0 0 24 24" id="search">
    <path d="M11 19C15.4183 19 19 15.4183 19 11C19 6.58172 15.4183 3 11 3C6.58172 3 3 6.58172 3 11C3 15.4183 6.58172 19 11 19Z" stroke-width="2" stroke-linecap="round" stroke-linejoin="round"></path>
    <path d="M21 21L16.65 16.65" stroke-width="2" stroke-linecap="round" stroke-linejoin="round"></path>
  </symbol>



    <symbol fill="inherit" xmlns="http://www.w3.org/2000/svg" viewBox="0 0 10 13" id="plays">
    <path fill-rule="evenodd" clip-rule="evenodd" d="M1.3 11.331L8.29606 6.5L1.3 1.66897V11.331ZM0.666238 1.23131L0.669532 1.23361L0.666238 1.23131ZM1.41031 12.8347L9.64301 7.14971C10.119 6.82485 10.119 6.17514 9.64301 5.85029L1.41031 0.165315C0.828559 -0.240754 0 0.149072 0 0.815026V12.185C0 12.8509 0.828559 13.2408 1.41031 12.8347Z"/>
  </symbol>

    <symbol fill="inherit" xmlns="http://www.w3.org/2000/svg" viewBox="0 0 13 12" id="likes">
    <path d="M9.425 0C8.294 0 7.2085 0.5297 6.5 1.36676C5.7915 0.5297 4.706 0 3.575 0C1.573 0 0 1.58256 0 3.59673C0 6.06866 2.21 8.08283 5.5575 11.1433L6.5 12L7.4425 11.1368C10.79 8.08283 13 6.06866 13 3.59673C13 1.58256 11.427 0 9.425 0ZM6.565 10.1689L6.5 10.2343L6.435 10.1689C3.341 7.35041 1.3 5.48665 1.3 3.59673C1.3 2.28883 2.275 1.3079 3.575 1.3079C4.576 1.3079 5.551 1.95531 5.8955 2.85123H7.111C7.449 1.95531 8.424 1.3079 9.425 1.3079C10.725 1.3079 11.7 2.28883 11.7 3.59673C11.7 5.48665 9.659 7.35041 6.565 10.1689Z"/>
  </symbol>

    <symbol fill="inherit" xmlns="http://www.w3.org/2000/svg" viewBox="0 0 13 12" id="liked">
    <path d="M6.5 12L5.5575 11.1368C2.21 8.08283 0 6.06866 0 3.59673C0 1.58256 1.573 0 3.575 0C4.706 0 5.7915 0.5297 6.5 1.36676C7.2085 0.5297 8.294 0 9.425 0C11.427 0 13 1.58256 13 3.59673C13 6.06866 10.79 8.08283 7.4425 11.1433L6.5 12Z"/>
  </symbol>

    <symbol fill="inherit" xmlns="http://www.w3.org/2000/svg" viewBox="0 0 12 13" id="shares">
    <path d="M10 9.18876C9.49333 9.18876 9.04 9.38454 8.69333 9.69127L3.94 6.98293C3.97333 6.83283 4 6.68273 4 6.5261C4 6.36948 3.97333 6.21938 3.94 6.06928L8.64 3.38705C9 3.71335 9.47333 3.91566 10 3.91566C11.1067 3.91566 12 3.04116 12 1.95783C12 0.874498 11.1067 0 10 0C8.89333 0 8 0.874498 8 1.95783C8 2.11446 8.02667 2.26456 8.06 2.41466L3.36 5.09689C3 4.77058 2.52667 4.56827 2 4.56827C0.893333 4.56827 0 5.44277 0 6.5261C0 7.60944 0.893333 8.48394 2 8.48394C2.52667 8.48394 3 8.28163 3.36 7.95532L8.10667 10.6702C8.07333 10.8072 8.05333 10.9508 8.05333 11.0944C8.05333 12.1451 8.92667 13 10 13C11.0733 13 11.9467 12.1451 11.9467 11.0944C11.9467 10.0437 11.0733 9.18876 10 9.18876ZM10 1.30522C10.3667 1.30522 10.6667 1.5989 10.6667 1.95783C10.6667 2.31677 10.3667 2.61044 10 2.61044C9.63333 2.61044 9.33333 2.31677 9.33333 1.95783C9.33333 1.5989 9.63333 1.30522 10 1.30522ZM2 7.17871C1.63333 7.17871 1.33333 6.88504 1.33333 6.5261C1.33333 6.16717 1.63333 5.87349 2 5.87349C2.36667 5.87349 2.66667 6.16717 2.66667 6.5261C2.66667 6.88504 2.36667 7.17871 2 7.17871ZM10 11.76C9.63333 11.76 9.33333 11.4664 9.33333 11.1074C9.33333 10.7485 9.63333 10.4548 10 10.4548C10.3667 10.4548 10.6667 10.7485 10.6667 11.1074C10.6667 11.4664 10.3667 11.76 10 11.76Z"/>
  </symbol>

    <symbol fill="inherit" xmlns="http://www.w3.org/2000/svg" viewBox="0 0 12 13" id="shared">
    <path d="M10 9.18875C9.49333 9.18875 9.04 9.38454 8.69333 9.69127L3.94 6.98293C3.97333 6.83283 4 6.68273 4 6.5261C4 6.36948 3.97333 6.21938 3.94 6.06928L8.64 3.38705C9 3.71335 9.47333 3.91566 10 3.91566C11.1067 3.91566 12 3.04116 12 1.95783C12 0.874498 11.1067 0 10 0C8.89333 0 8 0.874498 8 1.95783C8 2.11446 8.02667 2.26456 8.06 2.41466L3.36 5.09689C3 4.77058 2.52667 4.56827 2 4.56827C0.893333 4.56827 0 5.44277 0 6.5261C0 7.60944 0.893333 8.48394 2 8.48394C2.52667 8.48394 3 8.28163 3.36 7.95532L8.10667 10.6702C8.07333 10.8072 8.05333 10.9508 8.05333 11.0944C8.05333 12.1451 8.92667 13 10 13C11.0733 13 11.9467 12.1451 11.9467 11.0944C11.9467 10.0437 11.0733 9.18875 10 9.18875Z"/>
  </symbol>

  <symbol fill="inherit" xmlns="http://www.w3.org/2000/svg" viewBox="0 0 24 24" id="insta">
      <path d="M10 0C12.717 0 13.056 0.00999994 14.122 0.0599999C15.187 0.11 15.912 0.277 16.55 0.525C17.21 0.779 17.766 1.123 18.322 1.678C18.8305 2.1779 19.224 2.78259 19.475 3.45C19.722 4.087 19.89 4.813 19.94 5.878C19.987 6.944 20 7.283 20 10C20 12.717 19.99 13.056 19.94 14.122C19.89 15.187 19.722 15.912 19.475 16.55C19.2247 17.2178 18.8311 17.8226 18.322 18.322C17.822 18.8303 17.2173 19.2238 16.55 19.475C15.913 19.722 15.187 19.89 14.122 19.94C13.056 19.987 12.717 20 10 20C7.283 20 6.944 19.99 5.878 19.94C4.813 19.89 4.088 19.722 3.45 19.475C2.78233 19.2245 2.17753 18.8309 1.678 18.322C1.16941 17.8222 0.775931 17.2175 0.525 16.55C0.277 15.913 0.11 15.187 0.0599999 14.122C0.0129999 13.056 0 12.717 0 10C0 7.283 0.00999994 6.944 0.0599999 5.878C0.11 4.812 0.277 4.088 0.525 3.45C0.775236 2.78218 1.1688 2.17732 1.678 1.678C2.17767 1.16923 2.78243 0.775729 3.45 0.525C4.088 0.277 4.812 0.11 5.878 0.0599999C6.944 0.0129999 7.283 0 10 0ZM10 5C8.67392 5 7.40215 5.52678 6.46447 6.46447C5.52678 7.40215 5 8.67392 5 10C5 11.3261 5.52678 12.5979 6.46447 13.5355C7.40215 14.4732 8.67392 15 10 15C11.3261 15 12.5979 14.4732 13.5355 13.5355C14.4732 12.5979 15 11.3261 15 10C15 8.67392 14.4732 7.40215 13.5355 6.46447C12.5979 5.52678 11.3261 5 10 5ZM16.5 4.75C16.5 4.41848 16.3683 4.10054 16.1339 3.86612C15.8995 3.6317 15.5815 3.5 15.25 3.5C14.9185 3.5 14.6005 3.6317 14.3661 3.86612C14.1317 4.10054 14 4.41848 14 4.75C14 5.08152 14.1317 5.39946 14.3661 5.63388C14.6005 5.8683 14.9185 6 15.25 6C15.5815 6 15.8995 5.8683 16.1339 5.63388C16.3683 5.39946 16.5 5.08152 16.5 4.75ZM10 7C10.7956 7 11.5587 7.31607 12.1213 7.87868C12.6839 8.44129 13 9.20435 13 10C13 10.7956 12.6839 11.5587 12.1213 12.1213C11.5587 12.6839 10.7956 13 10 13C9.20435 13 8.44129 12.6839 7.87868 12.1213C7.31607 11.5587 7 10.7956 7 10C7 9.20435 7.31607 8.44129 7.87868 7.87868C8.44129 7.31607 9.20435 7 10 7Z"/>
  </symbol>

    <symbol fill="inherit" xmlns="http://www.w3.org/2000/svg" viewBox="0 0 24 24" id="fb">
      <path d="M13.78 20V12.26H16.3722L16.76 9.25111H13.78V7.33111C13.78 6.46 14.0222 5.86556 15.2711 5.86556H16.8644V3.17444C16.0931 3.09261 15.3179 3.05292 14.5422 3.05556C12.2456 3.05556 10.6733 4.45778 10.6733 7.03333V9.25111H8.07556V12.26H10.6733V20H1.11111C0.816426 20 0.533811 19.8829 0.325437 19.6746C0.117063 19.4662 0 19.1836 0 18.8889V1.11111C0 0.816426 0.117063 0.533811 0.325437 0.325437C0.533811 0.117063 0.816426 0 1.11111 0H18.8889C19.1836 0 19.4662 0.117063 19.6746 0.325437C19.8829 0.533811 20 0.816426 20 1.11111V18.8889C20 19.1836 19.8829 19.4662 19.6746 19.6746C19.4662 19.8829 19.1836 20 18.8889 20H13.78Z"/>
  </symbol>

    <symbol fill="inherit" xmlns="http://www.w3.org/2000/svg" viewBox="0 0 24 24" id="tw">
<path d="M21.1621 2.65593C20.3986 2.99362 19.589 3.2154 18.7601 3.31393C19.6338 2.79136 20.2878 1.96894 20.6001 0.999927C19.7801 1.48793 18.8811 1.82993 17.9441 2.01493C17.3147 1.34151 16.4804 0.89489 15.571 0.744511C14.6616 0.594133 13.728 0.748418 12.9153 1.18338C12.1026 1.61834 11.4564 2.30961 11.0772 3.14972C10.6979 3.98983 10.6068 4.93171 10.8181 5.82893C9.15516 5.74558 7.52838 5.31345 6.04334 4.56059C4.55829 3.80773 3.24818 2.75097 2.19805 1.45893C1.82634 2.09738 1.63101 2.82315 1.63205 3.56193C1.63205 5.01193 2.37005 6.29293 3.49205 7.04293C2.82806 7.02202 2.17869 6.84271 1.59805 6.51993V6.57193C1.59825 7.53763 1.93242 8.47354 2.5439 9.22099C3.15538 9.96843 4.00653 10.4814 4.95305 10.6729C4.33667 10.84 3.69036 10.8646 3.06305 10.7449C3.32992 11.5762 3.85006 12.3031 4.55064 12.824C5.25123 13.3449 6.09718 13.6337 6.97005 13.6499C6.10253 14.3313 5.10923 14.8349 4.04693 15.1321C2.98464 15.4293 1.87418 15.5142 0.779053 15.3819C2.69075 16.6114 4.91615 17.264 7.18905 17.2619C14.8821 17.2619 19.0891 10.8889 19.0891 5.36193C19.0891 5.18193 19.0841 4.99993 19.0761 4.82193C19.8949 4.23009 20.6017 3.49695 21.1631 2.65693L21.1621 2.65593Z"/>
  </symbol>

    <symbol fill="inherit" xmlns="http://www.w3.org/2000/svg" viewBox="0 0 21 20" id="market">
    <path d="M17.4383 1.54391L13.7294 0.176758L8.39558 7.8637L8.92665 4.3751L6.02046 2.68219L0.673828 9.11407C0.924147 10.3858 1.41008 11.5718 2.08375 12.6239L5.27361 8.77112L4.09981 13.2962L7.73695 14.6271L13.1407 6.8464L11.9568 11.2958L14.9032 13.0179L20.5579 7.31745C20.5591 7.25344 20.5598 7.18887 20.5598 7.12462C20.5598 5.78258 20.3016 4.50132 19.8328 3.32896L16.548 6.6538L17.4383 1.54391Z"/>
  </symbol>

   <symbol fill="inherit" xmlns="http://www.w3.org/2000/svg" viewBox="0 0 21 20" id="market__circle">
    <path d="M10.5 20C16.0228 20 20.5 15.5228 20.5 9.99998C20.5 4.47714 16.0228 0 10.5 0C4.97724 0 0.5 4.47714 0.5 9.99998C0.5 15.5228 4.97724 20 10.5 20Z"/>
  </symbol>

    <symbol fill="inherit" xmlns="http://www.w3.org/2000/svg" viewBox="0 0 24 24" id="yt">
    <g clip-path="url(#clip0_24531_5372)">
      <path d="M21.543 6.498C22 8.28 22 12 22 12C22 12 22 15.72 21.543 17.502C21.289 18.487 20.546 19.262 19.605 19.524C17.896 20 12 20 12 20C12 20 6.107 20 4.395 19.524C3.45 19.258 2.708 18.484 2.457 17.502C2 15.72 2 12 2 12C2 12 2 8.28 2.457 6.498C2.711 5.513 3.454 4.738 4.395 4.476C6.107 4 12 4 12 4C12 4 17.896 4 19.605 4.476C20.55 4.742 21.292 5.516 21.543 6.498ZM10 15.5L16 12L10 8.5V15.5Z"/>
    </g>
    <defs>
      <clipPath id="clip0_24531_5372">
        <rect width="24" height="24" fill="white"></rect>
      </clipPath>
    </defs>
  </symbol>


  <symbol fill="inherit" xmlns="http://www.w3.org/2000/svg" viewBox="0 0 24 24" id="ok">
      <path d="M10.2338 8.14624C10.2338 9.0928 11.0569 9.86023 12.0724 9.86023C13.088 9.86023 13.9111 9.0928 13.9111 8.14624C13.9111 7.19968 13.088 6.43231 12.0724 6.43231C11.0569 6.43231 10.2338 7.19968 10.2338 8.14624Z"/>
      <path fill-rule="evenodd" clip-rule="evenodd" d="M8 2C4.68629 2 2 4.68629 2 8V16C2 19.3137 4.68629 22 8 22H16C19.3137 22 22 19.3137 22 16V8C22 4.68629 19.3137 2 16 2H8ZM7.62436 8.14617C7.62436 5.85633 9.61571 4 12.0724 4C14.5292 4 16.5206 5.85633 16.5206 8.14617C16.5206 10.4361 14.5292 12.2925 12.0724 12.2925C9.61571 12.2925 7.62436 10.4361 7.62436 8.14617ZM16.5472 14.4252C16.4907 14.4674 15.4236 15.2535 13.6427 15.5916L16.3307 18.0748C16.8034 18.5147 16.804 19.2285 16.3321 19.6691C15.8602 20.1097 15.0946 20.1104 14.6216 19.6704L12.012 17.3016L9.64177 19.6552C9.4046 19.8846 9.08805 20 8.77109 20C8.46897 20 8.16645 19.8952 7.93169 19.6842C7.45075 19.252 7.43691 18.5384 7.90062 18.0902L10.4519 15.6048C8.62134 15.2746 7.51009 14.468 7.45295 14.4252C6.93171 14.0357 6.84811 13.3262 7.26591 12.8404C7.6839 12.3547 8.44492 12.2767 8.96616 12.6662C8.97719 12.6744 10.1394 13.4883 12.012 13.4895C13.8847 13.4883 15.0228 12.6744 15.0338 12.6662C15.5551 12.2767 16.3163 12.3547 16.7341 12.8404C17.1519 13.3262 17.0683 14.0357 16.5472 14.4252Z"/>
  </symbol>

   <symbol fill="inherit" xmlns="http://www.w3.org/2000/svg" viewBox="0 0 24 24" id="vk">
    <path fill-rule="evenodd" clip-rule="evenodd" d="M2 8C2 4.68652 4.68652 2 8 2H16C19.3135 2 22 4.68652 22 8V16C22 19.3135 19.3135 22 16 22H8C4.68652 22 2 19.3135 2 16V8ZM17.3438 13.4473C17.7139 13.7778 18.0845 14.1089 18.4121 14.4795C18.5415 14.626 18.6665 14.7754 18.7769 14.9346C18.835 15.0181 18.8892 15.104 18.938 15.1934C19.0425 15.3848 19.0439 15.5859 18.9727 15.7383C18.9058 15.8809 18.7754 15.981 18.606 15.9917L16.4209 15.9912C15.8569 16.0356 15.4077 15.8208 15.0293 15.4575C14.7271 15.1675 14.4468 14.8584 14.1558 14.5586C14.0366 14.4355 13.9116 14.3198 13.7622 14.2285C13.5962 14.1265 13.4419 14.0991 13.3086 14.1455C13.2031 14.1821 13.1104 14.2656 13.0352 14.3955C12.8613 14.6938 12.8213 15.0244 12.8047 15.3564C12.7812 15.8418 12.6255 15.9688 12.1089 15.9917C11.0044 16.0405 9.95654 15.8823 8.98242 15.3574C8.12305 14.8945 7.45801 14.2417 6.87842 13.502C5.75 12.0601 4.88574 10.4775 4.10938 8.84912C3.93457 8.48242 4.0625 8.28662 4.4917 8.27881C5.20459 8.26611 5.91797 8.26758 6.63086 8.27832C6.9209 8.28271 7.11279 8.43896 7.22461 8.69727C7.60986 9.59082 8.08203 10.4409 8.67432 11.229L8.78369 11.3721C8.90918 11.5317 9.04541 11.6826 9.22217 11.7969C9.4751 11.9604 9.66797 11.9062 9.7876 11.6401C9.86377 11.4707 9.89697 11.2896 9.91357 11.1084C9.97021 10.4873 9.97705 9.86621 9.87891 9.24756C9.81787 8.86035 9.58643 8.61035 9.17725 8.53711C8.96826 8.49951 8.99902 8.42676 9.10059 8.31445C9.27637 8.12061 9.44141 8.00049 9.771 8.00049L12.2397 8C12.6284 8.07178 12.7158 8.23633 12.7686 8.60596L12.771 11.1909C12.7661 11.334 12.8472 11.7578 13.1191 11.8511C13.3374 11.9189 13.4814 11.7539 13.6118 11.624C14.2036 11.0317 14.6255 10.333 15.0034 9.60986C15.1699 9.29102 15.314 8.96094 15.4536 8.63037C15.5024 8.51562 15.5635 8.42822 15.6455 8.36816C15.7378 8.30029 15.8564 8.26758 16.0117 8.26953L18.3887 8.27246C18.4585 8.27246 18.5298 8.27295 18.5991 8.28418C18.8101 8.31836 18.9404 8.37939 18.9985 8.4834C19.0503 8.57666 19.0439 8.70508 18.9854 8.87939C18.7979 9.43555 18.4399 9.90283 18.0835 10.3677L18.041 10.4233C17.6436 10.9409 17.2202 11.4399 16.8271 11.96C16.4658 12.4346 16.4941 12.6738 16.9429 13.0864C17.0752 13.208 17.2095 13.3276 17.3438 13.4473Z"/>
  </symbol>


   <symbol fill="inherit" xmlns="http://www.w3.org/2000/svg" viewBox="0 0 40 40" id="modal__vk">
      <rect width="33.33" height="33.33" rx="2"></rect>
    <path d="M17.7487 23.332H16.3854C16.3854 23.332 13.3772 23.5131 10.7277 20.7545C7.83835 17.7461 5.28686 11.7765 5.28686 11.7765C5.28686 11.7765 5.13973 11.3853 5.29964 11.1959C5.47938 10.9831 5.96857 10.9695 5.96857 10.9695L9.22782 10.9482C9.22782 10.9482 9.53491 10.9994 9.75468 11.1608C9.93588 11.294 10.0373 11.543 10.0373 11.543C10.0373 11.543 10.5641 12.8752 11.2617 14.0804C12.6233 16.4331 13.2575 16.9477 13.7198 16.6957C14.3934 16.3283 14.1914 13.3698 14.1914 13.3698C14.1914 13.3698 14.2037 12.296 13.8522 11.8177C13.58 11.4475 13.0667 11.3391 12.84 11.3089C12.6566 11.2844 12.9576 10.8587 13.3478 10.6676C13.9343 10.3803 14.9699 10.3641 16.1938 10.3765C17.1473 10.3863 17.4219 10.4458 17.7946 10.5357C18.6597 10.7446 18.6327 11.4138 18.5745 12.8578L18.5745 12.8579C18.5571 13.2893 18.537 13.7899 18.537 14.3681C18.537 14.4983 18.5332 14.6371 18.5293 14.7798V14.7799C18.509 15.5193 18.4858 16.3656 18.9726 16.6802C19.2223 16.8415 19.8331 16.7042 21.3603 14.111C22.084 12.8819 22.627 11.4368 22.627 11.4368C22.627 11.4368 22.7453 11.1791 22.9297 11.0688C23.1181 10.9561 23.3726 10.9907 23.3726 10.9907L26.8023 10.9695C26.8023 10.9695 27.8329 10.8466 27.9997 11.3118C28.1747 11.8001 27.6146 12.9402 26.2135 14.8077C24.8827 16.5813 24.236 17.2332 24.2968 17.8106C24.3401 18.2221 24.7429 18.5959 25.5137 19.311L25.5668 19.3603C27.2548 20.9272 27.7051 21.7501 27.8121 21.9456C27.8207 21.9615 27.8271 21.9732 27.8318 21.9809C28.5873 23.2337 26.9939 23.332 26.9939 23.332L23.9477 23.3746C23.9477 23.3746 23.2931 23.5041 22.4317 22.9125C21.9813 22.6033 21.5409 22.0985 21.1214 21.6174L21.1214 21.6174C20.4798 20.8818 19.8868 20.2019 19.3806 20.3624C18.5317 20.6319 18.5583 22.4613 18.5583 22.4613C18.5583 22.4613 18.5645 22.852 18.371 23.0601C18.1605 23.2866 17.7487 23.332 17.7487 23.332Z" fill="#121723"></path>
  </symbol>

   <symbol fill="inherit" xmlns="http://www.w3.org/2000/svg" viewBox="0 0 34 34" id="g">
    <rect width="33.33" height="33.33" rx="2"></rect>
    <path d="M20.9403 11.9923C20.1517 11.2694 18.7687 10.4043 16.7183 10.4043C13.8309 10.4043 11.3802 12.2649 10.4945 14.8364C10.2761 15.5001 10.1427 16.2111 10.1427 16.9459C10.1427 17.6806 10.2761 18.3917 10.5066 19.0553C11.3802 21.6269 13.8309 23.4874 16.7183 23.4874C18.344 23.4874 19.5815 23.0489 20.5036 22.4208C21.9595 21.4254 22.6146 19.9441 22.7359 18.9605H16.7183V15.0024H26.9701C27.1277 15.666 27.2006 16.3059 27.2006 17.1829C27.2006 20.4299 26.0116 23.1675 23.9491 25.028C22.1414 26.6634 19.6664 27.6115 16.7183 27.6115C12.4477 27.6115 8.75954 25.2176 6.96398 21.7335C6.22395 20.2877 5.79932 18.6642 5.79932 16.9459C5.79932 15.2275 6.22395 13.604 6.96398 12.1582C8.75954 8.67409 12.4477 6.28027 16.7183 6.28027C19.6664 6.28027 22.1293 7.33499 24.0219 9.05333L20.9403 11.9923Z" fill="#121723"></path>
  </symbol>
</svg>




